<?xml version="1.0" encoding="utf-8"?>
<!-- Generator: Adobe Illustrator 19.0.0, SVG Export Plug-In . SVG Version: 6.00 Build 0)  -->
<svg version="1.1" id="Layer_1" xmlns="http://www.w3.org/2000/svg" xmlns:xlink="http://www.w3.org/1999/xlink" x="0px" y="0px"
	 viewBox="0 0 960 560" style="enable-background:new 0 0 960 560;" xml:space="preserve">
<path d="M478.5,305.7c0.1-3.1,0.7-6.1,1.8-9.1c1.4-3.6,1.1-7.6,1.5-11.4c0.5-4.4,0.6-8.8,1-13.2c0.1-1.4,0.1-3.7,1.9-3.6
	c1.6,0,1.1,2.2,1.3,3.5c1.4,7.4,2.5,14.8,3.3,22.3c0.3,2.8,1.8,5.4,1.9,8.2c0.1,1.8,0.2,3.6-0.2,5.3c-0.5,2.8-2.4,4-4.9,4.7
	c-2.4,0.7-4.6,0-6.4-1.4C478.2,309.8,478.4,307.6,478.5,305.7z"/>
</svg>
