<?xml version="1.0" encoding="utf-8"?>
<!-- Generator: Adobe Illustrator 19.0.0, SVG Export Plug-In . SVG Version: 6.00 Build 0)  -->
<svg version="1.1" id="Layer_1" xmlns="http://www.w3.org/2000/svg" xmlns:xlink="http://www.w3.org/1999/xlink" x="0px" y="0px"
	 viewBox="0 0 960 560" style="enable-background:new 0 0 960 560;" xml:space="preserve">
<path d="M478.8,309.6c0.3-2,0.4-4.1,0.8-6.1c1.3-6.1,1.5-12.3,1.8-18.5c0.4-6.2,1-12.3,2.4-18.4c0.1-0.6,0.3-1.2,0.5-1.8
	c0.2-0.4,0.4-1,0.9-1c0.7,0,0.9,0.6,1,1.1c0.2,1.8,0.6,3.6,0.6,5.3c-0.1,9.8,1.2,19.5,2.3,29.2c0.4,3.5,1.2,6.9,1.5,10.4
	c0.3,4.3-2.1,6.1-5.7,7.5c-1.8,0.7-4.6-1.3-5.5-3.7C479,312.3,478.8,311,478.8,309.6z"/>
</svg>
