<?xml version="1.0" encoding="utf-8"?>
<!-- Generator: Adobe Illustrator 19.0.0, SVG Export Plug-In . SVG Version: 6.00 Build 0)  -->
<svg version="1.1" id="Layer_1" xmlns="http://www.w3.org/2000/svg" xmlns:xlink="http://www.w3.org/1999/xlink" x="0px" y="0px"
	 viewBox="0 0 960 560" style="enable-background:new 0 0 960 560;" xml:space="preserve">
<path d="M485.1,263c0.2,4.4-1.3,8.5-1.7,12.6c-0.7,7.8-0.4,15.5,0.3,23.3c0.1,1.6,0.3,3.2,0,4.7c-0.1,0.5-0.2,1-0.8,1.1
	c-0.6,0.1-0.8-0.5-1-0.9c-1.3-2.7-2.1-5.7-2.7-8.6c-1.5-6.6-2.2-13.3-3.2-20c-0.5-3.4-1.8-6.6-2-10.1c-0.2-3.2-0.3-6.3,2.6-8.7
	c1.7-1.3,2.9-1.4,4.6-0.1C483.4,258.1,485.8,259.7,485.1,263z"/>
</svg>
