<?xml version="1.0" encoding="utf-8"?>
<!-- Generator: Adobe Illustrator 19.0.0, SVG Export Plug-In . SVG Version: 6.00 Build 0)  -->
<svg version="1.1" id="Layer_1" xmlns="http://www.w3.org/2000/svg" xmlns:xlink="http://www.w3.org/1999/xlink" x="0px" y="0px"
	 viewBox="0 0 960 560" style="enable-background:new 0 0 960 560;" xml:space="preserve">
<path d="M491,307.2c0,1.8,0,3.6,0,5.4c0,1.8-0.9,2.6-2.7,2.7c-2.1,0.1-4.1,0.1-6.2-0.2c-1.2-0.2-1.8-0.8-1.9-2.1
	c-0.1-5-0.3-10.1,1.2-15c0.9-2.9,0.9-5.9,1-8.8c0.2-7.1,1.5-14.1,2.7-21.1c0.1-0.7,0.1-1.8,1-1.8c1.1-0.1,1.1,1,1.3,1.8
	c0.7,2.5,0.7,5.2,0.9,7.8c0.4,8.3,0.9,16.6,2.4,24.9c0.4,2.1,0.1,4.3,0.1,6.4C490.9,307.2,490.9,307.2,491,307.2z"/>
</svg>
