<?xml version="1.0" encoding="utf-8"?>
<!-- Generator: Adobe Illustrator 19.0.0, SVG Export Plug-In . SVG Version: 6.00 Build 0)  -->
<svg version="1.1" xmlns="http://www.w3.org/2000/svg" xmlns:xlink="http://www.w3.org/1999/xlink" x="0px" y="0px"
	 viewBox="0 0 21.1 56.7" style="enable-background:new 0 0 21.1 56.7;" xml:space="preserve">
<style type="text/css">
	.st0{display:none;}
	.st1{display:inline;}
</style>
<g id="Layer_1" class="st0">
	<path id="XMLID_2_" class="st1" d="M13.5,29.1c-0.4-1.5-0.6-2.4-0.8-3.3c-0.2-0.5-0.4-1.1-1.1-1.1c-0.7-0.1-1,0.5-1.2,1
		c-0.7,1.6-1.4,3.3-1.9,5c-0.3-2-0.5-4-0.8-6.1c-0.1-0.6-0.3-1.3-1-1.4C5.9,23,5.4,23.5,5,24.1c-1.9,2.7-2.3,5.8-2.3,8.9
		c0,4.6-0.3,9.2-1.5,13.7c-0.5,2.1-0.5,4.2,0.1,6.3c0.8,2.9,2.5,4.2,5.5,3.6c2.6-0.5,5.1-0.5,7.8,0c3.1,0.6,4.9-0.8,5.6-4
		c0.8-3.5-0.1-6.8-1-10.2c-0.6-2.1-0.8-4.2-0.5-6.3c0.4-3,0.1-6-0.6-9c-0.1-0.5-0.2-1-0.4-1.4c-0.5-0.9-0.8-2.4-2.1-2.2
		c-1.3,0.2-1,1.6-1.4,2.5C13.9,26.8,13.8,27.6,13.5,29.1z"/>
</g>
<g id="Layer_2" class="st0">
	<path id="XMLID_3_" class="st1" d="M12.3,29.4c-0.3-2-0.7-4.1-0.8-6.1c-0.1-2.2-2.1-2-3.2-2.7c-0.9-0.6-1.7,0.5-2.2,1.3
		c-2.2,2.9-3,6.4-3.3,9.9C2.3,37,1.9,42.1,0.7,47.3c-0.4,1.8-0.3,3.7,0.2,5.5c0.8,3,2.6,4.4,5.6,3.8c2.7-0.5,5.3-0.6,8,0
		c3.1,0.6,5-0.7,5.7-3.9c0.6-2.6,0.5-5.3-0.2-7.8c-1.3-4.2-1.1-8.6-1.4-12.9c-0.2-2.7-0.4-5.4-1.2-7.9c-0.1-0.5-0.2-1-0.5-1.4
		c-0.4-0.7-0.6-1.9-1.7-1.8c-1.2,0.1-1.2,1.4-1.3,2.3c-0.4,2.1-0.7,4.2-1,6.2C12.6,29.4,12.5,29.4,12.3,29.4z"/>
</g>
<g id="Layer_3" class="st0">
	<path id="XMLID_4_" class="st1" d="M12.1,31.2c-1-3.3-1.5-6.2-2.1-9.2c-0.2-0.9-0.2-2-1.1-2.3c-1.2-0.4-1.3,1-1.9,1.5
		c-0.1-0.1-0.2-0.1-0.3-0.2c-0.5-0.8-0.7-2.1-1.8-2c-1,0.1-1.4,1.3-1.8,2.3c-0.7,2.5-1.1,5-1.1,7.5c0,6.3,0.1,12.5-1.5,18.7
		c-0.5,1.7-0.2,3.6,0.3,5.3c0.7,2.7,2.6,4.2,5.3,3.7c3-0.6,5.8-0.6,8.8,0c2.8,0.6,4.7-1,5.4-3.8c0.8-3,0.4-6.1-0.4-9
		c-0.8-2.9-1-5.8-0.9-8.8c0.1-3.4,0.1-6.9,0.1-10.3c0-1.4-0.2-2.7-0.8-4c-0.3-0.7-0.7-1.3-1.4-1.3c-0.8,0-1.1,0.8-1.3,1.4
		c-0.6,1.8-1.1,3.7-1.6,5.5C13.5,27.8,13.1,29.4,12.1,31.2z"/>
</g>
<g id="Layer_4" class="st0">
	<path id="XMLID_5_" class="st1" d="M17.4,49.7c-0.1-3.1-0.7-6.1-1.8-9.1c-1.4-3.6-1.1-7.6-1.5-11.4c-0.5-4.4-0.6-8.8-1-13.2
		c-0.1-1.4-0.1-3.7-1.9-3.6c-1.6,0-1.1,2.2-1.3,3.5c-1.4,7.4-2.5,14.8-3.3,22.3c-0.3,2.8-1.8,5.4-1.9,8.2c-0.1,1.8-0.2,3.6,0.2,5.3
		c0.5,2.8,2.4,4,4.9,4.7c2.4,0.7,4.6,0,6.4-1.4C17.7,53.8,17.5,51.7,17.4,49.7z"/>
</g>
<g id="Layer_5" class="st0">
	<path id="XMLID_6_" class="st1" d="M3.9,48.9c-0.1,4.3,1.2,6.1,5,7.4c2.4,0.9,5.3-0.1,7.1-2.5c1.5-2,1.5-4.4,1.1-6.7
		c-1.1-5.3-2.1-10.7-2.7-16.1c-0.7-6.3-1.3-12.6-2.8-18.8c-0.2-1-0.6-2-1-2.9c-0.2-0.4-0.3-1-0.9-0.9C9,8.5,8.9,9,8.8,9.5
		c-0.5,2.2-0.6,4.5-0.7,6.8c-0.3,7.3-0.8,14.6-1.7,21.8c-0.4,3-2.1,5.7-2.3,8.8C4,47.7,3.9,48.6,3.9,48.9z"/>
</g>
<g id="Layer_6" class="st0">
	<path id="XMLID_7_" class="st1" d="M16.5,48.7c-0.3-2-0.4-4.1-0.8-6.1c-1.3-6.1-1.5-12.3-1.8-18.5c-0.4-6.2-1-12.3-2.4-18.4
		c-0.1-0.6-0.3-1.2-0.5-1.8c-0.2-0.4-0.4-1-0.9-1C9.3,3,9.1,3.6,9,4.1C8.8,5.9,8.4,7.7,8.4,9.4c0.1,9.8-1.2,19.5-2.3,29.2
		C5.8,42.1,4.9,45.5,4.6,49c-0.3,4.3,2.1,6.1,5.7,7.5c1.8,0.7,4.6-1.3,5.5-3.7C16.3,51.5,16.4,50.1,16.5,48.7z"/>
</g>
<g id="Layer_7">
	<path id="XMLID_8_" d="M4.8,48.6c0,1.8,0,3.6,0,5.4c0,1.8,0.9,2.6,2.7,2.7c2.1,0.1,4.1,0.1,6.2-0.2c1.2-0.2,1.8-0.8,1.9-2.1
		c0.1-5,0.3-10.1-1.2-15c-0.9-2.9-0.9-5.9-1-8.8c-0.2-7.1-1.5-14.1-2.7-21.1c-0.1-0.7-0.1-1.8-1-1.8c-1.1-0.1-1.1,1-1.3,1.8
		c-0.7,2.5-0.7,5.2-0.9,7.8C7,25.6,6.4,34,5,42.2C4.7,44.3,5,46.4,5,48.6C4.9,48.6,4.9,48.6,4.8,48.6z"/>
</g>
</svg>
