<?xml version="1.0" encoding="utf-8"?>
<!-- Generator: Adobe Illustrator 19.0.0, SVG Export Plug-In . SVG Version: 6.00 Build 0)  -->
<svg version="1.1" id="Layer_1" xmlns="http://www.w3.org/2000/svg" xmlns:xlink="http://www.w3.org/1999/xlink" x="0px" y="0px"
	 viewBox="0 0 960 560" style="enable-background:new 0 0 960 560;" xml:space="preserve">
<path d="M486.4,298.3c0,1.9,0,3.9-0.3,5.8c-0.2,1.1-0.8,1.7-1.9,1.9c-2.7,0.4-5.5,0.5-8.2,0.1c-1.4-0.2-2.1-1-2-2.4
	c0.3-5.9,0-11.8,1.4-17.7c1.3-5.6,1.6-11.4,2.3-17.2c0.4-4,0.5-8.1,1.6-12.1c0.3-1.1,0.4-2.8,1.6-2.8c1.5,0.1,1.3,1.9,1.4,3
	c0.8,9.3,1.3,18.7,2.6,28C485.5,289.4,486.7,293.8,486.4,298.3z"/>
</svg>
