<?xml version="1.0" encoding="utf-8"?>
<!-- Generator: Adobe Illustrator 19.0.0, SVG Export Plug-In . SVG Version: 6.00 Build 0)  -->
<svg version="1.1" id="Layer_1" xmlns="http://www.w3.org/2000/svg" xmlns:xlink="http://www.w3.org/1999/xlink" x="0px" y="0px"
	 viewBox="0 0 960 560" style="enable-background:new 0 0 960 560;" xml:space="preserve">
<path d="M471.3,280.2c0.2-2.1-0.1-6-1.2-9.8c-0.8-2.7-0.8-5.5-0.2-8.2c0.7-3,2.7-4.4,5.6-3.6c2.9,0.8,5.6,0.8,8.5,0
	c3.1-0.8,5,0.6,5.7,3.8c0.7,2.9,0.5,5.8-0.3,8.6c-1.7,5.2-1.2,10.5-0.8,15.8c0.3,4.1,0.2,8.1-0.5,12.1c-0.2,0.9-0.2,2.3-1.3,2.4
	c-1.3,0.1-1.4-1.4-1.7-2.3c-1-3.5-2-7-2.9-10.5c-0.2-0.9-0.5-1.7-0.9-2.5c-0.3-0.7-0.5-1.9-1.4-1.7c-0.8,0.1-1.1,1.1-1.3,1.9
	c-1,3.7-1.2,7.5-1.6,11.2c-0.1,1-0.2,2.1-0.4,3.1c-0.1,0.8-0.2,1.7-1.2,1.7c-0.9,0-1.2-0.8-1.5-1.5c-0.9-2.2-1.3-4.5-1.7-6.8
	C471.4,289.9,471.1,286,471.3,280.2z"/>
</svg>
