<?xml version="1.0" encoding="utf-8"?>
<!-- Generator: Adobe Illustrator 19.0.0, SVG Export Plug-In . SVG Version: 6.00 Build 0)  -->
<svg version="1.1" id="Layer_1" xmlns="http://www.w3.org/2000/svg" xmlns:xlink="http://www.w3.org/1999/xlink" x="0px" y="0px"
	 viewBox="0 0 960 560" style="enable-background:new 0 0 960 560;" xml:space="preserve">
<path d="M484.3,261.8c-0.1,6.9-1.6,13.6-1.8,20.5c-0.2,5,0,10-0.6,15c-0.2,1.4-0.3,2.9-0.8,4.3c-0.2,0.6-0.4,1.3-1.2,1.2
	c-0.6-0.1-0.8-0.7-0.9-1.3c-0.6-3-0.8-6.1-1-9.2c-0.7-7.7-0.7-15.4-2.2-23c-0.6-2.9-0.4-6-0.6-9c-0.1-1.9,0.8-2.8,2.7-2.8
	c0.7,0,1.4-0.1,2.1-0.1C484.1,257.4,484.4,257.8,484.3,261.8z"/>
</svg>
