<?xml version="1.0" encoding="utf-8"?>
<!-- Generator: Adobe Illustrator 19.0.0, SVG Export Plug-In . SVG Version: 6.00 Build 0)  -->
<svg version="1.1" id="Layer_1" xmlns="http://www.w3.org/2000/svg" xmlns:xlink="http://www.w3.org/1999/xlink" x="0px" y="0px"
	 viewBox="0 0 960 560" style="enable-background:new 0 0 960 560;" xml:space="preserve">
<path d="M478.3,271c0.3-2,0.7-4.1,0.8-6.1c0.1-2.2,2.1-2,3.2-2.7c0.9-0.6,1.7,0.5,2.2,1.3c2.2,2.9,3,6.4,3.3,9.9
	c0.5,5.2,0.9,10.4,2.1,15.5c0.4,1.8,0.3,3.7-0.2,5.5c-0.8,3-2.6,4.4-5.6,3.8c-2.7-0.5-5.3-0.6-8,0c-3.1,0.6-5-0.7-5.7-3.9
	c-0.6-2.6-0.5-5.3,0.2-7.8c1.3-4.2,1.1-8.6,1.4-12.9c0.2-2.7,0.4-5.4,1.2-7.9c0.1-0.5,0.2-1,0.5-1.4c0.4-0.7,0.6-1.9,1.7-1.8
	c1.2,0.1,1.2,1.4,1.3,2.3c0.4,2.1,0.7,4.2,1,6.2C478,271,478.1,271,478.3,271z"/>
</svg>
