<?xml version="1.0" encoding="utf-8"?>
<!-- Generator: Adobe Illustrator 19.0.0, SVG Export Plug-In . SVG Version: 6.00 Build 0)  -->
<svg version="1.1" id="Layer_1" xmlns="http://www.w3.org/2000/svg" xmlns:xlink="http://www.w3.org/1999/xlink" x="0px" y="0px"
	 viewBox="0 0 960 560" style="enable-background:new 0 0 960 560;" xml:space="preserve">
<path d="M486.5,263.4c-0.2,3.1-0.3,6.4-1.3,9.4c-1.7,5.1-1.6,10.4-1.9,15.7c-0.3,4.6,0.3,9.2-0.5,13.8c-0.2,1,0,2.5-1.3,2.5
	c-1.3,0.1-1.2-1.4-1.5-2.4c-2.4-8.5-3.2-17.2-4.4-25.8c-0.6-4.2-2.5-8.2-2.7-12.5c-0.1-1.9-0.6-4.2,1.3-5.3c2.5-1.5,4.9-3.5,8.5-1.5
	C485.3,258.9,486.9,260.3,486.5,263.4z"/>
</svg>
