<?xml version="1.0" encoding="utf-8"?>
<!-- Generator: Adobe Illustrator 19.0.0, SVG Export Plug-In . SVG Version: 6.00 Build 0)  -->
<svg version="1.1" id="Layer_1" xmlns="http://www.w3.org/2000/svg" xmlns:xlink="http://www.w3.org/1999/xlink" x="0px" y="0px"
	 viewBox="0 0 960 560" style="enable-background:new 0 0 960 560;" xml:space="preserve">
<path d="M487.3,253.8c0.8,6.8,1.4,15.6,1.4,24.3c0,2.5-0.1,5.1-0.1,7.6c0,1.3,0.2,2.6,0.3,3.9c0.1,0.7,0.2,1.7,1.1,1.7
	c0.8,0,0.9-1,1-1.6c0.6-3.2,1.2-6.4,1.6-9.6c1.1-7.8,2.2-15.5,3.2-23.3c0.4-3.1,0.2-6.2,0.2-9.3c0-1.3-0.7-1.9-1.9-2
	c-0.1,0-0.3,0-0.4-0.1C487.9,244.6,487.2,245.4,487.3,253.8z"/>
</svg>
