<?xml version="1.0" encoding="utf-8"?>
<!-- Generator: Adobe Illustrator 19.0.0, SVG Export Plug-In . SVG Version: 6.00 Build 0)  -->
<svg version="1.1" id="Layer_1" xmlns="http://www.w3.org/2000/svg" xmlns:xlink="http://www.w3.org/1999/xlink" x="0px" y="0px"
	 viewBox="0 0 960 560" style="enable-background:new 0 0 960 560;" xml:space="preserve">
<path d="M471.2,281.1c0.3-2.5-0.4-5.1-1.1-7.7c-0.8-2.8-1.1-5.7-0.6-8.6c0.6-3.4,2.6-4.9,5.8-4.1c3,0.8,5.9,0.7,8.9,0
	c3-0.7,4.9,0.7,5.7,3.6c0.9,3.5,0.2,6.9-0.7,10.2c-0.7,2.3-0.9,4.6-0.9,6.9c0.2,5.6-0.2,11.1-1.9,16.5c0,0.1-0.1,0.3-0.1,0.4
	c-0.3,0.7-0.5,1.9-1.4,1.8c-1-0.1-1.1-1.2-1.3-2.1c-0.3-1.6-0.6-3.1-0.8-4.7c-0.4-2.3-0.7-4.6-1.6-6.8c-0.2-0.6-0.5-1.2-1.2-1.2
	c-0.9,0-1.1,0.7-1.3,1.4c-0.9,3.2-0.9,6.5-1.1,9.8c-0.1,1.3,0.3,3.2-1.1,3.4c-1.5,0.3-2.1-1.5-2.6-2.8
	C471.8,292,471.4,286.6,471.2,281.1z"/>
</svg>
