<?xml version="1.0" encoding="utf-8"?>
<!-- Generator: Adobe Illustrator 19.0.0, SVG Export Plug-In . SVG Version: 6.00 Build 0)  -->
<svg version="1.1" xmlns="http://www.w3.org/2000/svg" xmlns:xlink="http://www.w3.org/1999/xlink" x="0px" y="0px"
	 viewBox="0 0 21.1 56.7" style="enable-background:new 0 0 21.1 56.7;" xml:space="preserve">
<style type="text/css">
	.st0{display:none;}
	.st1{display:inline;}
</style>
<g id="Layer_1" class="st0">
	<path id="XMLID_2_" class="st1" d="M13.5,29.1c-0.4-1.5-0.6-2.4-0.8-3.3c-0.2-0.5-0.4-1.1-1.1-1.1c-0.7-0.1-1,0.5-1.2,1
		c-0.7,1.6-1.4,3.3-1.9,5c-0.3-2-0.5-4-0.8-6.1c-0.1-0.6-0.3-1.3-1-1.4C5.9,23,5.4,23.5,5,24.1c-1.9,2.7-2.3,5.8-2.3,8.9
		c0,4.6-0.3,9.2-1.5,13.7c-0.5,2.1-0.5,4.2,0.1,6.3c0.8,2.9,2.5,4.2,5.5,3.6c2.6-0.5,5.1-0.5,7.8,0c3.1,0.6,4.9-0.8,5.6-4
		c0.8-3.5-0.1-6.8-1-10.2c-0.6-2.1-0.8-4.2-0.5-6.3c0.4-3,0.1-6-0.6-9c-0.1-0.5-0.2-1-0.4-1.4c-0.5-0.9-0.8-2.4-2.1-2.2
		c-1.3,0.2-1,1.6-1.4,2.5C13.9,26.8,13.8,27.6,13.5,29.1z"/>
</g>
<g id="Layer_2" class="st0">
	<path id="XMLID_3_" class="st1" d="M12.3,29.4c-0.3-2-0.7-4.1-0.8-6.1c-0.1-2.2-2.1-2-3.2-2.7c-0.9-0.6-1.7,0.5-2.2,1.3
		c-2.2,2.9-3,6.4-3.3,9.9C2.3,37,1.9,42.1,0.7,47.3c-0.4,1.8-0.3,3.7,0.2,5.5c0.8,3,2.6,4.4,5.6,3.8c2.7-0.5,5.3-0.6,8,0
		c3.1,0.6,5-0.7,5.7-3.9c0.6-2.6,0.5-5.3-0.2-7.8c-1.3-4.2-1.1-8.6-1.4-12.9c-0.2-2.7-0.4-5.4-1.2-7.9c-0.1-0.5-0.2-1-0.5-1.4
		c-0.4-0.7-0.6-1.9-1.7-1.8c-1.2,0.1-1.2,1.4-1.3,2.3c-0.4,2.1-0.7,4.2-1,6.2C12.6,29.4,12.5,29.4,12.3,29.4z"/>
</g>
<g id="Layer_3">
	<path id="XMLID_4_" d="M12.1,31.2c-1-3.3-1.5-6.2-2.1-9.2c-0.2-0.9-0.2-2-1.1-2.3c-1.2-0.4-1.3,1-1.9,1.5c-0.1-0.1-0.2-0.1-0.3-0.2
		c-0.5-0.8-0.7-2.1-1.8-2c-1,0.1-1.4,1.3-1.8,2.3c-0.7,2.5-1.1,5-1.1,7.5c0,6.3,0.1,12.5-1.5,18.7c-0.5,1.7-0.2,3.6,0.3,5.3
		c0.7,2.7,2.6,4.2,5.3,3.7c3-0.6,5.8-0.6,8.8,0c2.8,0.6,4.7-1,5.4-3.8c0.8-3,0.4-6.1-0.4-9c-0.8-2.9-1-5.8-0.9-8.8
		c0.1-3.4,0.1-6.9,0.1-10.3c0-1.4-0.2-2.7-0.8-4c-0.3-0.7-0.7-1.3-1.4-1.3c-0.8,0-1.1,0.8-1.3,1.4c-0.6,1.8-1.1,3.7-1.6,5.5
		C13.5,27.8,13.1,29.4,12.1,31.2z"/>
</g>
</svg>
