<?xml version="1.0" encoding="utf-8"?>
<!-- Generator: Adobe Illustrator 19.0.0, SVG Export Plug-In . SVG Version: 6.00 Build 0)  -->
<svg version="1.1" id="Layer_1" xmlns="http://www.w3.org/2000/svg" xmlns:xlink="http://www.w3.org/1999/xlink" x="0px" y="0px"
	 viewBox="0 0 960 560" style="enable-background:new 0 0 960 560;" xml:space="preserve">
<path d="M483.3,283.8c1-3.3,1.5-6.2,2.1-9.2c0.2-0.9,0.2-2,1.1-2.3c1.2-0.4,1.3,1,1.9,1.5c0.1-0.1,0.2-0.1,0.3-0.2
	c0.5-0.8,0.7-2.1,1.8-2c1,0.1,1.4,1.3,1.8,2.3c0.7,2.5,1.1,5,1.1,7.5c0,6.3-0.1,12.5,1.5,18.7c0.5,1.7,0.2,3.6-0.3,5.3
	c-0.7,2.7-2.6,4.2-5.3,3.7c-3-0.6-5.8-0.6-8.8,0c-2.8,0.6-4.7-1-5.4-3.8c-0.8-3-0.4-6.1,0.4-9c0.8-2.9,1-5.8,0.9-8.8
	c-0.1-3.4-0.1-6.9-0.1-10.3c0-1.4,0.2-2.7,0.8-4c0.3-0.7,0.7-1.3,1.4-1.3c0.8,0,1.1,0.8,1.3,1.4c0.6,1.8,1.1,3.7,1.6,5.5
	C481.9,280.4,482.3,281.9,483.3,283.8z"/>
</svg>
