<?xml version="1.0" encoding="utf-8"?>
<!-- Generator: Adobe Illustrator 19.0.0, SVG Export Plug-In . SVG Version: 6.00 Build 0)  -->
<svg version="1.1" id="Layer_1" xmlns="http://www.w3.org/2000/svg" xmlns:xlink="http://www.w3.org/1999/xlink" x="0px" y="0px"
	 viewBox="0 0 960 560" style="enable-background:new 0 0 960 560;" xml:space="preserve">
<path d="M471.7,280.9c0.8-3.3-1.3-7.1-1.9-11.2c-0.3-2.2-0.4-4.4,0.2-6.6c0.8-2.9,2.6-4.3,5.5-3.5c2.9,0.7,5.6,0.8,8.5,0
	c3-0.8,4.9,0.7,5.6,3.7c0.6,2.5,0.7,5-0.1,7.4c-1.7,5-1.2,10.1-1.5,15.1c-0.2,4.5-0.9,8.9-2.8,13c-0.4,0.8-0.7,1.9-1.8,1.6
	c-1-0.2-0.9-1.3-0.9-2.1c0-3.5-0.2-6.9-0.9-10.3c-0.3-1.2-0.4-3.2-1.7-3.2c-1.2,0-1.2,1.9-1.5,3.1c-0.5,2.9-0.8,5.7-0.8,8.6
	c0,0.8,0,1.5-0.1,2.3c-0.1,0.9,0.1,2.2-1.2,2.3c-1,0.1-1.4-1-1.7-1.8c-0.8-2-1.3-4.1-1.7-6.2C472.1,289.5,471.5,285.7,471.7,280.9z"
	/>
</svg>
