<?xml version="1.0" encoding="utf-8"?>
<!-- Generator: Adobe Illustrator 19.0.0, SVG Export Plug-In . SVG Version: 6.00 Build 0)  -->
<svg version="1.1" id="Layer_1" xmlns="http://www.w3.org/2000/svg" xmlns:xlink="http://www.w3.org/1999/xlink" x="0px" y="0px"
	 viewBox="0 0 960 560" style="enable-background:new 0 0 960 560;" xml:space="preserve">
<path d="M486.4,263.6c-0.2,2.7-0.5,5.7-1.5,8.6c-1.4,4.3-1.6,8.8-1.7,13.3c-0.1,5.5,0,11-0.5,16.5c-0.1,0.7,0.1,1.5-0.7,1.7
	c-0.9,0.2-1.1-0.7-1.4-1.3c-0.9-2-1.4-4.1-1.7-6.3c-0.9-6.7-1.8-13.4-2.7-20c-0.2-1.6-0.8-3.2-1.4-4.7c-0.9-2.4-1.2-5-1.3-7.5
	c-0.1-3.4,3.3-7.4,6.1-7.4C483.2,256.3,486.4,259.7,486.4,263.6z"/>
</svg>
