<?xml version="1.0" encoding="utf-8"?>
<!-- Generator: Adobe Illustrator 19.0.0, SVG Export Plug-In . SVG Version: 6.00 Build 0)  -->
<svg version="1.1" id="Layer_1" xmlns="http://www.w3.org/2000/svg" xmlns:xlink="http://www.w3.org/1999/xlink" x="0px" y="0px"
	 viewBox="0 0 960 560" style="enable-background:new 0 0 960 560;" xml:space="preserve">
<path d="M492.1,306.8c0.1,4.3-1.2,6.1-5,7.4c-2.4,0.9-5.3-0.1-7.1-2.5c-1.5-2-1.5-4.4-1.1-6.7c1.1-5.3,2.1-10.7,2.7-16.1
	c0.7-6.3,1.3-12.6,2.8-18.8c0.2-1,0.6-2,1-2.9c0.2-0.4,0.3-1,0.9-0.9c0.6,0.1,0.7,0.6,0.8,1.1c0.5,2.2,0.6,4.5,0.7,6.8
	c0.3,7.3,0.8,14.6,1.7,21.8c0.4,3,2.1,5.7,2.3,8.8C491.9,305.6,492,306.5,492.1,306.8z"/>
</svg>
